<!-- Generated by IcoMoon.io -->
<svg version="1.1" xmlns="http://www.w3.org/2000/svg" width="26" height="32" viewBox="0 0 26 32">
<path d="M22.384 22.123c0 0.36-0.292 0.652-0.652 0.652s-0.652-0.292-0.652-0.652c0-0.36 0.292-0.652 0.652-0.652s0.652 0.292 0.652 0.652z"></path>
<path d="M24.122 22.123c0 0.36-0.292 0.652-0.652 0.652s-0.652-0.292-0.652-0.652c0-0.36 0.292-0.652 0.652-0.652s0.652 0.292 0.652 0.652z"></path>
<path d="M25.861 22.123c0 0.36-0.292 0.652-0.652 0.652s-0.652-0.292-0.652-0.652c0-0.36 0.292-0.652 0.652-0.652s0.652 0.292 0.652 0.652z"></path>
<path d="M22.384 20.384c0 0.36-0.292 0.652-0.652 0.652s-0.652-0.292-0.652-0.652c0-0.36 0.292-0.652 0.652-0.652s0.652 0.292 0.652 0.652z"></path>
<path d="M24.122 20.384c0 0.36-0.292 0.652-0.652 0.652s-0.652-0.292-0.652-0.652c0-0.36 0.292-0.652 0.652-0.652s0.652 0.292 0.652 0.652z"></path>
<path d="M25.861 20.384c0 0.36-0.292 0.652-0.652 0.652s-0.652-0.292-0.652-0.652c0-0.36 0.292-0.652 0.652-0.652s0.652 0.292 0.652 0.652z"></path>
<path d="M22.384 23.861c0 0.36-0.292 0.652-0.652 0.652s-0.652-0.292-0.652-0.652c0-0.36 0.292-0.652 0.652-0.652s0.652 0.292 0.652 0.652z"></path>
<path d="M24.122 23.861c0 0.36-0.292 0.652-0.652 0.652s-0.652-0.292-0.652-0.652c0-0.36 0.292-0.652 0.652-0.652s0.652 0.292 0.652 0.652z"></path>
<path d="M25.861 23.861c0 0.36-0.292 0.652-0.652 0.652s-0.652-0.292-0.652-0.652c0-0.36 0.292-0.652 0.652-0.652s0.652 0.292 0.652 0.652z"></path>
<path d="M4.32 2.208l-2.534 0.63c-0.23 0.061-0.374 0.296-0.317 0.526 0.052 0.2 0.23 0.33 0.422 0.33 0.035 0 0.070-0.004 0.104-0.013l2.53-0.63c0.235-0.057 0.374-0.296 0.317-0.526-0.056-0.235-0.291-0.378-0.522-0.317z"></path>
<path d="M6.007 1.786l-0.422 0.104c-0.235 0.056-0.374 0.296-0.317 0.526 0.048 0.196 0.226 0.33 0.422 0.33 0.035 0 0.070-0.004 0.104-0.013l0.422-0.104c0.235-0.057 0.374-0.296 0.317-0.526s-0.296-0.374-0.526-0.317z"></path>
<path d="M9.236 3.994l-0.787 0.417-0.813-3.268c-0.17-0.674-0.769-1.143-1.465-1.143-0.122 0-0.248 0.013-0.365 0.043l-4.664 1.165c-0.391 0.096-0.717 0.339-0.926 0.687s-0.269 0.752-0.174 1.143l1.287 5.163-0.795 0.422 4.338 16.316c0.104 0.387 0.456 0.661 0.856 0.661h14.699v-7.823l-7.58-0.013-3.612-13.769zM2.125 7.78l-1.234-4.955c-0.043-0.165-0.017-0.339 0.074-0.482 0.087-0.148 0.226-0.248 0.396-0.291l4.664-1.16c0.043-0.017 0.096-0.022 0.148-0.022 0.296 0 0.548 0.2 0.622 0.487l0.869 3.477-5.537 2.947zM19.559 18.646v6.085l-13.843-0.013-4.159-15.647 7.119-3.794 3.334 12.709c0.104 0.391 0.456 0.661 0.861 0.661h6.689z"></path>
<path d="M10.866 17.777h-1.739c-0.239 0-0.435 0.196-0.435 0.435s0.196 0.435 0.435 0.435h1.739c0.239 0 0.435-0.196 0.435-0.435s-0.196-0.435-0.435-0.435z"></path>
<path d="M7.515 17.903c-0.078 0.083-0.126 0.196-0.126 0.309s0.048 0.226 0.126 0.309c0.083 0.078 0.196 0.126 0.309 0.126s0.226-0.048 0.309-0.126c0.078-0.083 0.126-0.196 0.126-0.309s-0.048-0.226-0.126-0.309c-0.165-0.161-0.456-0.161-0.617 0z"></path>
</svg>
