<!-- Generated by IcoMoon.io -->
<svg version="1.1" xmlns="http://www.w3.org/2000/svg" width="26" height="32" viewBox="0 0 26 32">
<path d="M17.213 12.682c1.096-2.005 5.544-4.761 5.544-7.438 0-1.504-1.241-2.724-2.772-2.724s-2.772 1.22-2.772 2.724c0-1.504-1.241-2.724-2.772-2.724s-2.771 1.22-2.771 2.724c0 2.678 4.448 5.433 5.543 7.438z"></path>
<path d="M11.902 14.552c-0.317 0-0.593 0.213-0.668 0.516l-1.007 4.062-1.864-11.315c-0.052-0.317-0.325-0.554-0.652-0.567-0.319-0.009-0.617 0.203-0.695 0.515l-1.682 6.789h-3.98v1.35h4.52c0.317 0 0.593-0.212 0.668-0.515l1.007-4.062 1.864 11.314c0.052 0.318 0.325 0.554 0.652 0.568 0.009 0 0.018 0 0.027 0 0.315 0 0.592-0.213 0.667-0.516l1.682-6.789h11.853v-1.35h-12.393z"></path>
</svg>
